<svg xmlns="http://www.w3.org/2000/svg" version="1.1" xmlns:xlink="http://www.w3.org/1999/xlink" xmlns:svgjs="http://svgjs.dev/svgjs" width="1000" height="623" viewBox="0 0 1000 623"><g transform="matrix(1,0,0,1,-0.6060606060606233,0.2522267206477409)"><svg viewBox="0 0 396 247" data-background-color="#ffffff" preserveAspectRatio="xMidYMid meet" height="623" width="1000" xmlns="http://www.w3.org/2000/svg" xmlns:xlink="http://www.w3.org/1999/xlink"><g id="tight-bounds" transform="matrix(1,0,0,1,0.2400000000000091,-0.09999999999999432)"><svg viewBox="0 0 395.52 247.2" height="247.2" width="395.52"><g><svg></svg></g><g><svg viewBox="0 0 395.52 247.2" height="247.2" width="395.52"><mask id="db2af72b-6182-4531-befd-d2fc99c44266"><rect width="640" height="400" fill="white"></rect><g transform="matrix(1,0,0,1,42.166002344665856,37.08)"><svg viewBox="0 0 311.18799531066827 173.04" height="173.04" width="311.18799531066827"><g><svg viewBox="0 0 311.18799531066827 173.04" height="173.04" width="311.18799531066827"><g><svg viewBox="0 0 311.18799531066827 173.04" height="173.04" width="311.18799531066827"><g><svg viewBox="0 0 311.18799531066827 173.04" height="173.04" width="311.18799531066827"><g id="SvgjsG1002"><svg viewBox="0 0 311.18799531066827 173.04" height="173.04" width="311.18799531066827" id="SvgjsSvg1001"><g><svg viewBox="0 0 311.18799531066827 173.04" height="173.04" width="311.18799531066827"><g transform="matrix(1,0,0,1,0,0)"><svg width="311.18799531066827" viewBox="-1.4500000000000002 -39 77.7 43.65" height="173.04" data-palette-color="000"><path d="M20.35 0.65Q15.35 0.65 11.28-1.63 7.2-3.9 4.88-7.95 2.55-12 2.55-17.15L2.55-17.15Q2.55-22.35 4.88-26.4 7.2-30.45 11.28-32.73 15.35-35 20.35-35L20.35-35Q25.3-35 29.38-32.73 33.45-30.45 35.77-26.38 38.1-22.3 38.1-17.15L38.1-17.15Q38.1-12 35.77-7.95 33.45-3.9 29.38-1.63 25.3 0.65 20.35 0.65L20.35 0.65ZM20.35-3.65Q23.95-3.65 26.78-5.38 29.6-7.1 31.18-10.18 32.75-13.25 32.75-17.15L32.75-17.15Q32.75-21.1 31.18-24.18 29.6-27.25 26.78-28.98 23.95-30.7 20.35-30.7L20.35-30.7Q16.7-30.7 13.85-28.98 11-27.25 9.45-24.15 7.9-21.05 7.9-17.15L7.9-17.15Q7.9-13.2 9.45-10.13 11-7.05 13.83-5.35 16.65-3.65 20.35-3.65L20.35-3.65ZM58.95-19.4Q65.55-17.55 68.9-15.05 72.25-12.55 72.25-8.4L72.25-8.4Q72.25-5.7 70.77-3.63 69.3-1.55 66.7-0.45 64.1 0.65 60.85 0.65L60.85 0.65Q57.3 0.65 54.1-0.85 50.9-2.35 48.2-5.05L48.2-5.05 48.2-0.05 43.65-0.05 43.65-11.6 46.55-11.75Q49.2-7.9 53-5.7 56.8-3.5 60.55-3.5L60.55-3.5Q63.35-3.5 65.12-4.7 66.9-5.9 66.9-7.95L66.9-7.95Q66.9-10.2 64.4-11.83 61.9-13.45 55.9-15L55.9-15Q49.65-16.65 46.75-19.33 43.85-22 43.85-25.9L43.85-25.9Q43.85-28.6 45.32-30.68 46.8-32.75 49.3-33.88 51.8-35 54.75-35L54.75-35Q61.7-35 66-29.9L66-29.9 66-34.3 70.55-34.3 70.55-22.9 67.75-22.75Q65.65-26.75 62.6-28.8 59.55-30.85 55.9-30.85L55.9-30.85Q52.95-30.85 51.07-29.58 49.2-28.3 49.2-26.15L49.2-26.15Q49.2-23.95 51.47-22.38 53.75-20.8 58.95-19.4L58.95-19.4Z" opacity="1" transform="matrix(1,0,0,1,0,0)" fill="black" class="wordmark-text-0" id="SvgjsPath1000" stroke-width="7" stroke="black" stroke-linejoin="round"></path></svg></g></svg></g></svg></g></svg></g><g></g></svg></g></svg></g></svg></g></mask><g transform="matrix(1,0,0,1,42.166002344665856,37.08)"><svg viewBox="0 0 311.18799531066827 173.04" height="173.04" width="311.18799531066827"><g><svg viewBox="0 0 311.18799531066827 173.04" height="173.04" width="311.18799531066827"><g><svg viewBox="0 0 311.18799531066827 173.04" height="173.04" width="311.18799531066827"><g><svg viewBox="0 0 311.18799531066827 173.04" height="173.04" width="311.18799531066827"><g id="textblocktransform"><svg viewBox="0 0 311.18799531066827 173.04" height="173.04" width="311.18799531066827" id="textblock"><g><svg viewBox="0 0 311.18799531066827 173.04" height="173.04" width="311.18799531066827"><g transform="matrix(1,0,0,1,0,0)"><svg width="311.18799531066827" viewBox="-1.4500000000000002 -39 77.7 43.65" height="173.04" data-palette-color="000"><path d="M20.35 0.65Q15.35 0.65 11.28-1.63 7.2-3.9 4.88-7.95 2.55-12 2.55-17.15L2.55-17.15Q2.55-22.35 4.88-26.4 7.2-30.45 11.28-32.73 15.35-35 20.35-35L20.35-35Q25.3-35 29.38-32.73 33.45-30.45 35.77-26.38 38.1-22.3 38.1-17.15L38.1-17.15Q38.1-12 35.77-7.95 33.45-3.9 29.38-1.63 25.3 0.65 20.35 0.65L20.35 0.65ZM20.35-3.65Q23.95-3.65 26.78-5.38 29.6-7.1 31.18-10.18 32.75-13.25 32.75-17.15L32.75-17.15Q32.75-21.1 31.18-24.18 29.6-27.25 26.78-28.98 23.95-30.7 20.35-30.7L20.35-30.7Q16.7-30.7 13.85-28.98 11-27.25 9.45-24.15 7.9-21.05 7.9-17.15L7.9-17.15Q7.9-13.2 9.45-10.13 11-7.05 13.83-5.35 16.65-3.65 20.35-3.65L20.35-3.65ZM58.95-19.4Q65.55-17.55 68.9-15.05 72.25-12.55 72.25-8.4L72.25-8.4Q72.25-5.7 70.77-3.63 69.3-1.55 66.7-0.45 64.1 0.65 60.85 0.65L60.85 0.65Q57.3 0.65 54.1-0.85 50.9-2.35 48.2-5.05L48.2-5.05 48.2-0.05 43.65-0.05 43.65-11.6 46.55-11.75Q49.2-7.9 53-5.7 56.8-3.5 60.55-3.5L60.55-3.5Q63.35-3.5 65.12-4.7 66.9-5.9 66.9-7.95L66.9-7.95Q66.9-10.2 64.4-11.83 61.9-13.45 55.9-15L55.9-15Q49.65-16.65 46.75-19.33 43.85-22 43.85-25.9L43.85-25.9Q43.85-28.6 45.32-30.68 46.8-32.75 49.3-33.88 51.8-35 54.75-35L54.75-35Q61.7-35 66-29.9L66-29.9 66-34.3 70.55-34.3 70.55-22.9 67.75-22.75Q65.65-26.75 62.6-28.8 59.55-30.85 55.9-30.85L55.9-30.85Q52.95-30.85 51.07-29.58 49.2-28.3 49.2-26.15L49.2-26.15Q49.2-23.95 51.47-22.38 53.75-20.8 58.95-19.4L58.95-19.4Z" opacity="1" transform="matrix(1,0,0,1,0,0)" fill="000" class="wordmark-text-0" data-fill-palette-color="primary" id="text-0"></path></svg></g></svg></g></svg></g></svg></g><g></g></svg></g></svg></g></svg></g><g mask="url(#db2af72b-6182-4531-befd-d2fc99c44266)"><g transform="matrix(5.774253113419162, 0, 0, 5.774253113419162, 134.2153585927045, 1)"><svg xmlns="http://www.w3.org/2000/svg" xmlns:xlink="http://www.w3.org/1999/xlink" version="1.1" x="0" y="0" viewBox="13.994984123694897 3.76737676700759 22.00964874907197 42.46436641825828" enable-background="new 0 0 50 50" xml:space="preserve" height="42.46436641825828" width="22.00964874907197" class="icon-none" data-fill-palette-color="accent" id="none"><g fill="#3478ff" data-fill-palette-color="accent"><path fill="#3478ff" d="M15.46 18.966c-0.809-11.959 17.819-3.344 16.74 2.342-1.042 5.485-4.462 6.436-6.833 9.766 0 0-1.652 4.902-1.089 6.859 1.852 6.451-7.67 12.285-10.149 4.742 0 0-1.191-5.121 3.528-8.623C19.529 31.66 16.128 28.834 15.46 18.966z" data-fill-palette-color="accent"></path><path fill="#3478ff" d="M20.647 7.222c0.296 2.111-0.716 4.002-2.26 4.221-1.542 0.213-3.035-1.322-3.33-3.438-0.297-2.115 0.714-4 2.256-4.217C18.86 3.57 20.352 5.105 20.647 7.222z" data-fill-palette-color="accent"></path><path fill="#3478ff" d="M26.446 9.339c-0.269 1.342-1.343 2.254-2.401 2.045-1.061-0.213-1.699-1.467-1.432-2.811 0.267-1.344 1.343-2.256 2.402-2.045C26.074 6.744 26.713 8 26.446 9.339z" data-fill-palette-color="accent"></path><path fill="#3478ff" d="M30.764 11.804c-0.41 1.094-1.443 1.723-2.308 1.396-0.861-0.324-1.231-1.469-0.821-2.566 0.41-1.094 1.441-1.719 2.305-1.395C30.802 9.566 31.171 10.712 30.764 11.804z" data-fill-palette-color="accent"></path><path fill="#3478ff" d="M34.076 15.181c-0.543 0.881-1.547 1.248-2.242 0.818-0.693-0.428-0.817-1.486-0.273-2.369 0.542-0.885 1.546-1.248 2.24-0.818C34.495 13.244 34.621 14.3 34.076 15.181z" data-fill-palette-color="accent"></path><path fill="#3478ff" d="M35.815 18.746c-0.343 0.643-1.033 0.943-1.541 0.672-0.509-0.27-0.641-1.012-0.298-1.654 0.342-0.643 1.032-0.945 1.54-0.676C36.024 17.363 36.157 18.101 35.815 18.746z" data-fill-palette-color="accent"></path></g></svg></g></g></svg></g><defs></defs></svg><rect width="395.52" height="247.2" fill="none" stroke="none" visibility="hidden"></rect></g></svg></g></svg>