<svg xmlns="http://www.w3.org/2000/svg" version="1.1" xmlns:xlink="http://www.w3.org/1999/xlink" xmlns:svgjs="http://svgjs.dev/svgjs" width="2000" height="1247" viewBox="0 0 2000 1247"><g transform="matrix(1,0,0,1,-1.2121212121212466,0.504858299595071)"><svg viewBox="0 0 396 247" data-background-color="#919191" preserveAspectRatio="xMidYMid meet" height="1247" width="2000" xmlns="http://www.w3.org/2000/svg" xmlns:xlink="http://www.w3.org/1999/xlink"><g id="tight-bounds" transform="matrix(1,0,0,1,0.2400000000000091,-0.09999999999999432)"><svg viewBox="0 0 395.52 247.2" height="247.2" width="395.52"><g><svg></svg></g><g><svg viewBox="0 0 395.52 247.2" height="247.2" width="395.52"><g transform="matrix(1,0,0,1,75.54432,54.04407152073733)"><svg viewBox="0 0 244.43135999999998 139.11185695852532" height="139.11185695852532" width="244.43135999999998"><g><svg viewBox="0 0 244.43135999999998 139.11185695852532" height="139.11185695852532" width="244.43135999999998"><g><svg viewBox="0 0 244.43135999999998 139.11185695852532" height="139.11185695852532" width="244.43135999999998"><g><svg viewBox="0 0 244.43135999999998 139.11185695852532" height="139.11185695852532" width="244.43135999999998"><g id="textblocktransform"><svg viewBox="0 0 244.43135999999998 139.11185695852532" height="139.11185695852532" width="244.43135999999998" id="textblock"><g><svg viewBox="0 0 244.43135999999998 139.11185695852532" height="139.11185695852532" width="244.43135999999998"><g transform="matrix(1,0,0,1,0,0)"><svg width="244.43135999999998" viewBox="1.9 -36.65 65.1 37.05" height="139.11185695852532" data-palette-color="#000000"><path d="M1.9-18.1L1.9-18.1Q1.9-21.85 3.35-25.23 4.8-28.6 7.33-31.15 9.85-33.7 13.2-35.18 16.55-36.65 20.4-36.65L20.4-36.65Q24.2-36.65 27.58-35.18 30.95-33.7 33.48-31.15 36-28.6 37.48-25.23 38.95-21.85 38.95-18.1L38.95-18.1Q38.95-14.25 37.48-10.9 36-7.55 33.48-5.03 30.95-2.5 27.58-1.05 24.2 0.4 20.4 0.4L20.4 0.4Q16.55 0.4 13.2-1.05 9.85-2.5 7.33-5.03 4.8-7.55 3.35-10.9 1.9-14.25 1.9-18.1ZM7.35-18.05L7.35-18.05Q7.35-15.3 8.38-12.88 9.4-10.45 11.2-8.65 13-6.85 15.4-5.8 17.8-4.75 20.5-4.75L20.5-4.75Q23.2-4.75 25.58-5.8 27.95-6.85 29.73-8.65 31.5-10.45 32.52-12.88 33.55-15.3 33.55-18.1L33.55-18.1Q33.55-20.85 32.52-23.28 31.5-25.7 29.7-27.5 27.9-29.3 25.53-30.35 23.15-31.4 20.45-31.4L20.45-31.4Q17.75-31.4 15.35-30.35 12.95-29.3 11.18-27.5 9.4-25.7 8.38-23.25 7.35-20.8 7.35-18.05ZM65.7-34.25L65.7-34.25 63.75-29.8Q61.7-30.55 59.67-31 57.65-31.45 55.8-31.45L55.8-31.45Q52.65-31.45 50.77-30.15 48.9-28.85 48.9-26.85L48.9-26.85Q48.9-25.15 50.25-24.13 51.6-23.1 53.6-22.28 55.6-21.45 57.95-20.63 60.3-19.8 62.3-18.5 64.3-17.2 65.65-15.23 67-13.25 67-10.15L67-10.15Q67-7.75 66.12-5.83 65.25-3.9 63.52-2.5 61.8-1.1 59.22-0.35 56.65 0.4 53.2 0.4L53.2 0.4Q51 0.4 49.22 0.1 47.45-0.2 46.02-0.68 44.6-1.15 43.52-1.7 42.45-2.25 41.7-2.7L41.7-2.7 44.1-7.45Q46.1-6.3 48.55-5.6 51-4.9 53-4.9L53-4.9Q54-4.9 55.47-5.15 56.95-5.4 58.3-6.03 59.65-6.65 60.62-7.7 61.6-8.75 61.6-10.35L61.6-10.35Q61.6-11.8 60.82-12.83 60.05-13.85 58.77-14.63 57.5-15.4 55.87-16.03 54.25-16.65 52.55-17.32 50.85-18 49.22-18.75 47.6-19.5 46.32-20.58 45.05-21.65 44.27-23.08 43.5-24.5 43.5-26.5L43.5-26.5Q43.5-28.35 44.25-30.15 45-31.95 46.5-33.35 48-34.75 50.22-35.6 52.45-36.45 55.4-36.45L55.4-36.45Q57.2-36.45 58.92-36.15 60.65-35.85 62.05-35.48 63.45-35.1 64.42-34.75 65.4-34.4 65.7-34.25Z" opacity="1" transform="matrix(1,0,0,1,0,0)" fill="#000000" class="wordmark-text-0" data-fill-palette-color="primary" id="text-0"></path></svg></g></svg></g></svg></g></svg></g></svg></g></svg></g></svg></g><path d="M144.635 48.044L144.635 3.59 384.654 3.59 384.654 243.61 144.635 243.61 144.635 199.156 157.18 199.156 157.18 231.064 372.109 231.064 372.109 16.136 157.18 16.136 157.18 48.044Z" fill="#000000" stroke="transparent" data-fill-palette-color="primary"></path></svg></g><defs></defs></svg><rect width="395.52" height="247.2" fill="none" stroke="none" visibility="hidden"></rect></g></svg></g></svg>